<svg width="358" height="310" viewBox="0 0 358 310" fill="none" xmlns="http://www.w3.org/2000/svg">
<g filter="url(#filter0_dd_35_1983)">
<path d="M179 54.4634C179 54.4634 244.112 54.9065 284.527 70.5189C313.679 81.7803 323.599 111.849 334.588 145.159C339.266 159.339 344.138 174.106 350.77 188.26C364.953 218.531 333.907 240.372 304.662 260.946C298.481 265.295 292.38 269.586 286.804 273.889C250.409 301.973 179 306 179 306C179 306 107.591 301.973 71.1958 273.889C65.6199 269.586 59.5194 265.295 53.3385 260.946C24.0932 240.372 -6.9532 218.531 7.23054 188.26C13.8622 174.106 18.734 159.339 23.4121 145.159C34.4015 111.849 44.3216 81.7803 73.4734 70.5189C113.888 54.9065 179 54.4634 179 54.4634Z" fill="#C3C3C3"/>
<path d="M290.285 24.7543C308.579 30.09 320.81 81.3061 326.873 125.369L219.398 56.7681C243.469 42.6894 271.992 19.4186 290.285 24.7543Z" fill="#C3C3C3"/>
<path d="M283.95 42.2677C295.365 47.0559 294.382 66.7819 299.092 84.9171C299.732 87.3802 297.332 89.6966 294.969 88.7529C278.503 82.1788 264.887 74.4647 241.21 59.0112C239.293 57.7601 239.43 54.898 241.455 53.8298C259.816 44.1414 272.173 37.3273 283.95 42.2677Z" fill="#737373"/>
<path d="M69.239 24.7543C50.9454 30.09 38.7148 81.3061 32.6519 125.369L140.127 56.7681C116.056 42.6893 87.5326 19.4186 69.239 24.7543Z" fill="#C3C3C3"/>
<path d="M75.5752 42.2677C64.1605 47.0559 65.1429 66.7819 60.4335 84.9171C59.7939 87.3802 62.1929 89.6966 64.5563 88.7529C81.022 82.1788 94.6382 74.4647 118.315 59.0112C120.232 57.7601 120.095 54.898 118.07 53.8298C99.709 44.1414 87.3528 37.3273 75.5752 42.2677Z" fill="#737373"/>
<path d="M119.099 52.5132C120.493 37.8218 128.624 24.3766 141.706 15.1355C154.788 5.89434 171.747 1.6143 188.853 3.23688C205.96 4.85946 221.812 12.2518 232.923 23.7875C244.034 35.3233 249.493 50.0577 248.099 64.7491L119.099 52.5132Z" fill="#E68888"/>
<path d="M157.299 39.7323C197.439 40.7977 215.934 50.18 249.543 65.5512C212.774 59.6684 191.494 57.2461 147.448 60.9536C110.343 58.7689 79.6492 59.3209 88.0648 48.9578C104.777 40.0945 118.23 37.2046 157.299 39.7323Z" fill="#DA7575"/>
<path fill-rule="evenodd" clip-rule="evenodd" d="M49.4214 153.554C49.4214 157.472 50.1008 161.263 51.3699 164.853C29.1534 181.634 15.8823 202.87 15.8823 225.966C15.8823 227.541 15.944 229.107 16.0661 230.665C25.7165 241.515 39.7221 251.368 53.3375 260.946C59.5184 265.295 65.6188 269.586 71.1948 273.889C107.59 301.973 178.999 306 178.999 306C178.999 306 250.408 301.973 286.803 273.889C292.379 269.586 298.48 265.295 304.661 260.946C319.071 250.809 333.919 240.363 343.578 228.753C343.62 227.827 343.642 226.898 343.642 225.966C343.642 202.451 329.886 180.865 306.938 163.946C308.01 160.626 308.58 157.143 308.58 153.553C308.58 130.821 285.715 112.393 257.51 112.393C240.174 112.393 224.856 119.355 215.624 129.999C204.082 128.453 192.081 127.638 179.762 127.638C166.958 127.638 154.497 128.519 142.538 130.185C133.324 119.436 117.928 112.393 100.491 112.393C72.286 112.393 49.4214 130.821 49.4214 153.554Z" fill="white"/>
<path fill-rule="evenodd" clip-rule="evenodd" d="M176.589 84.8522C177.469 82.0499 181.434 82.0499 182.314 84.8522L195.015 125.321L215.437 107.951C217.597 106.114 220.899 107.786 220.46 110.494L214.643 146.378C231.288 139.555 250.585 132.944 265.108 131.786C296.955 129.247 335.018 151.381 332.885 185.95C331.314 211.424 315.423 230.199 291.239 235.036C268.42 239.6 253.488 224.766 237.499 208.883L237.496 208.88L237.465 208.849L237.463 208.847C236.881 208.268 236.297 207.688 235.711 207.108C216.488 183.617 202.494 183.469 181.723 183.25C180.828 183.24 179.921 183.231 179 183.219C178.079 183.231 177.172 183.24 176.277 183.25C155.506 183.469 141.512 183.617 122.29 207.108C121.703 207.689 121.119 208.27 120.536 208.849L120.514 208.871L120.502 208.883C104.513 224.766 89.5804 239.6 66.7615 235.036C42.578 230.199 26.6866 211.424 25.1152 185.95C22.9827 151.381 61.0453 129.247 92.8925 131.786C108.214 133.008 128.847 140.298 146.075 147.503L140.075 110.494C139.636 107.786 142.939 106.114 145.098 107.951L164.232 124.225L176.589 84.8522Z" fill="#737373"/>
<path fill-rule="evenodd" clip-rule="evenodd" d="M208.727 244.339L194.854 241.21L177.899 219.867L166.448 237.399L149.273 244.339L149.273 244.339L149.273 244.339C149.273 250.18 152.405 255.782 157.98 259.913C163.555 264.043 171.116 266.364 179 266.364C186.884 266.364 194.445 264.043 200.02 259.913C205.595 255.782 208.727 250.18 208.727 244.339L208.727 244.339Z" fill="#AA4A4A"/>
<path fill-rule="evenodd" clip-rule="evenodd" d="M174.296 220.452C161.805 219.5 152.322 214.823 152.322 209.196C152.322 202.882 164.266 197.763 179 197.763C193.734 197.763 205.678 202.882 205.678 209.196C205.678 214.985 195.638 219.77 182.614 220.526C186.214 228.169 189.712 232.995 193.917 236.042C198.865 239.628 205.169 241.021 214.819 240.997C216.199 240.993 217.321 242.11 217.325 243.49C217.328 244.871 216.212 245.993 214.831 245.997C204.78 246.022 197.199 244.596 190.983 240.091C185.973 236.46 182.101 231.006 178.433 223.378C174.875 230.608 171.096 235.82 166.254 239.329C160.038 243.834 152.458 245.259 142.406 245.234C141.026 245.231 139.909 244.109 139.913 242.728C139.916 241.348 141.038 240.231 142.419 240.234C152.069 240.258 158.372 238.866 163.32 235.28C167.398 232.325 170.81 227.699 174.296 220.452Z" fill="black"/>
<path fill-rule="evenodd" clip-rule="evenodd" d="M88.272 148.804C89.1634 146.388 91.8255 145.16 94.2181 146.059L133.321 160.768C140.165 163.342 140.639 172.933 134.083 176.182L90.943 197.564C88.6511 198.7 85.881 197.745 84.7559 195.431C83.6307 193.117 84.5766 190.32 86.8685 189.184L128.081 168.758L90.9902 154.807C88.5977 153.907 87.3807 151.219 88.272 148.804Z" fill="black"/>
<path fill-rule="evenodd" clip-rule="evenodd" d="M267.461 148.804C266.534 146.388 263.766 145.16 261.278 146.059L220.61 160.768C213.492 163.342 212.999 172.933 219.818 176.182L264.684 197.564C267.067 198.7 269.948 197.745 271.118 195.431C272.288 193.117 271.305 190.32 268.921 189.184L226.06 168.758L264.635 154.807C267.123 153.907 268.388 151.219 267.461 148.804Z" fill="black"/>
</g>
<defs>
<filter id="filter0_dd_35_1983" x="0.686523" y="0.899902" width="356.627" height="309.1" filterUnits="userSpaceOnUse" color-interpolation-filters="sRGB">
<feFlood flood-opacity="0" result="BackgroundImageFix"/>
<feColorMatrix in="SourceAlpha" type="matrix" values="0 0 0 0 0 0 0 0 0 0 0 0 0 0 0 0 0 0 127 0" result="hardAlpha"/>
<feOffset dy="1"/>
<feGaussianBlur stdDeviation="1"/>
<feColorMatrix type="matrix" values="0 0 0 0 0 0 0 0 0 0 0 0 0 0 0 0 0 0 0.06 0"/>
<feBlend mode="normal" in2="BackgroundImageFix" result="effect1_dropShadow_35_1983"/>
<feColorMatrix in="SourceAlpha" type="matrix" values="0 0 0 0 0 0 0 0 0 0 0 0 0 0 0 0 0 0 127 0" result="hardAlpha"/>
<feOffset dy="1"/>
<feGaussianBlur stdDeviation="1.5"/>
<feColorMatrix type="matrix" values="0 0 0 0 0 0 0 0 0 0 0 0 0 0 0 0 0 0 0.1 0"/>
<feBlend mode="normal" in2="effect1_dropShadow_35_1983" result="effect2_dropShadow_35_1983"/>
<feBlend mode="normal" in="SourceGraphic" in2="effect2_dropShadow_35_1983" result="shape"/>
</filter>
</defs>
</svg>
